<svg width="24" height="24" viewBox="0 0 24 24" fill="none" xmlns="http://www.w3.org/2000/svg">
<path d="M15.4872 20.2528V17.0774C15.518 16.6861 15.4651 16.2928 15.3321 15.9236C15.1991 15.5543 14.9891 15.2176 14.7159 14.9358C17.2923 14.6487 20 13.6722 20 9.19224C19.9998 8.04666 19.5591 6.94502 18.7692 6.11532C19.1433 5.11307 19.1168 4.00525 18.6954 3.02198C18.6954 3.02198 17.7272 2.7348 15.4872 4.23634C13.6066 3.72666 11.6242 3.72666 9.74359 4.23634C7.50359 2.7348 6.53538 3.02198 6.53538 3.02198C6.11395 4.00525 6.0875 5.11307 6.46154 6.11532C5.66575 6.95117 5.22463 8.06277 5.23077 9.21686C5.23077 13.664 7.93846 14.6404 10.5149 14.9604C10.2449 15.2394 10.0367 15.5721 9.90384 15.9368C9.77096 16.3015 9.71636 16.6901 9.74359 17.0774V20.2528M9.74359 17.7912C5.64103 19.022 5.64103 15.7399 4 15.3297L9.74359 17.7912Z" stroke="#232323" stroke-width="1.4" stroke-linecap="round" stroke-linejoin="round"/>
</svg>
