<svg width="0" height="0" class="hidden">
  <symbol xmlns="http://www.w3.org/2000/svg" viewBox="0 0 299.215 299.215" id="html5">
    <path d="M22.347 0c-2.75 0-4.799 2.241-4.555 4.98l23.184 260.047c.244 2.739 2.611 5.582 5.262 6.318l98.381 27.316c2.65.736 6.986.736 9.637.002l98.68-27.361c2.65-.735 5.02-3.578 5.264-6.316L281.422 4.98c.246-2.739-1.805-4.98-4.555-4.98H22.347zm209.702 59.641l-.842 9.423-.611 6.823c-.246 2.738-.596 6.654-.781 8.701-.184 2.048-.359 3.723-.391 3.723H107.759c-2.75 0-4.799 2.241-4.555 4.98l2.143 23.955c.244 2.738 2.695 4.98 5.445 4.98h111.212c2.449 0 4.273 1.999 4.051 4.442a5396.99 5396.99 0 00-.848 9.423l-6.891 77.228c-.246 2.739-.557 6.238-.691 7.776-.137 1.537-2.416 3.396-5.066 4.131l-58.133 16.119c-2.65.734-4.852 1.342-4.893 1.351-.041.009-2.242-.586-4.893-1.321l-58.195-16.148c-2.65-.735-5.018-3.578-5.262-6.317l-3.746-42.045c-.244-2.739 1.807-4.98 4.557-4.98h23.231c2.75 0 5.199 2.241 5.445 4.98l1.469 16.459c.244 2.739 2.615 5.566 5.271 6.283l27.221 7.351c2.654.717 4.836 1.304 4.848 1.304s2.193-.588 4.848-1.305l27.27-7.369c2.654-.717 5.027-3.545 5.273-6.283l2.957-32.976c.246-2.739-1.803-4.98-4.553-4.98H80.511c-2.75 0-5.199-2.242-5.443-4.98l-7.256-81.306-.842-9.423c-.217-2.443 1.854-4.442 4.604-4.442h155.872c2.749 0 4.821 1.999 4.603 4.443z"></path>
  </symbol>
  <symbol xmlns="http://www.w3.org/2000/svg" viewBox="0 0 470.699 470.699" id="css-3">
    <path d="M426.981 0H43.701C34.52 0 27.632 7.769 28.442 16.949L63.45 409.254c.811 9.173 8.745 18.774 17.644 21.253L219.1 468.842c8.887 2.463 23.413 2.479 32.313.032l138.177-38.281c8.901-2.472 16.835-11.986 17.645-21.175l35.023-392.469C443.068 7.769 436.209 0 426.981 0zM360.51 141.611a.134.134 0 01-.112.117.134.134 0 01-.144-.077L252.13 185.96a3.485 3.485 0 001.321 6.708h84.103a15.772 15.772 0 0115.682 17.443l-13.141 123.273a15.77 15.77 0 01-10.447 13.205l-89.269 31.41a15.761 15.761 0 01-10.397.025l-88.852-30.778a15.771 15.771 0 01-10.52-13.228l-5.957-55.828a10.388 10.388 0 0110.331-11.492h24.725c5.313 0 9.769 4.007 10.331 9.289l3.655 34.316 61.521 21.385 61.803-21.58 7.559-71.17H129.835a10.39 10.39 0 01-10.327-9.25l-3.327-30.164a10.388 10.388 0 016.366-10.745l111.837-46.109a2.872 2.872 0 00-1.093-5.528H115.542a6.926 6.926 0 01-6.888-6.201l-3.406-32.421a6.927 6.927 0 016.887-7.648h246.379a6.928 6.928 0 016.881 7.707l-4.885 43.032z"></path>
  </symbol>
  <symbol xmlns="http://www.w3.org/2000/svg" viewBox="0 0 512 512" id="github">
    <path d="M255.968 5.329C114.624 5.329 0 120.401 0 262.353c0 113.536 73.344 209.856 175.104 243.872 12.8 2.368 17.472-5.568 17.472-12.384 0-6.112-.224-22.272-.352-43.712-71.2 15.52-86.24-34.464-86.24-34.464-11.616-29.696-28.416-37.6-28.416-37.6-23.264-15.936 1.728-15.616 1.728-15.616 25.696 1.824 39.2 26.496 39.2 26.496 22.848 39.264 59.936 27.936 74.528 21.344 2.304-16.608 8.928-27.936 16.256-34.368-56.832-6.496-116.608-28.544-116.608-127.008 0-28.064 9.984-51.008 26.368-68.992-2.656-6.496-11.424-32.64 2.496-68 0 0 21.504-6.912 70.4 26.336 20.416-5.696 42.304-8.544 64.096-8.64 21.728.128 43.648 2.944 64.096 8.672 48.864-33.248 70.336-26.336 70.336-26.336 13.952 35.392 5.184 61.504 2.56 68 16.416 17.984 26.304 40.928 26.304 68.992 0 98.72-59.84 120.448-116.864 126.816 9.184 7.936 17.376 23.616 17.376 47.584 0 34.368-.32 62.08-.32 70.496 0 6.88 4.608 14.88 17.6 12.352C438.72 472.145 512 375.857 512 262.353 512 120.401 397.376 5.329 255.968 5.329z"></path>
  </symbol>
  <symbol xmlns="http://www.w3.org/2000/svg" viewBox="0 0 30 30" id="jqvery">
    <path d="M2.177 7.337c-2.656 3.818-2.325 8.784-.297 12.841.048.096.099.191.149.287.031.061.061.123.094.184l.06.105c.034.064.07.125.106.189.063.111.127.221.193.332l.11.182c.073.117.147.234.226.352.031.049.063.1.095.148.106.156.214.314.325.469.004.004.006.01.01.012l.055.074a11.968 11.968 0 00.408.538c.09.113.182.225.275.338.034.041.068.084.104.125.125.146.253.293.383.436l.008.008c.006.008.01.01.015.018.126.139.257.273.388.408.041.043.082.084.125.125.102.104.205.205.31.305l.127.121c.14.131.28.26.425.387.002.002.004.004.007.004.024.023.05.043.073.064.127.109.256.219.387.326l.16.127a29.968 29.968 0 00.493.383c.119.088.239.174.36.258.045.033.088.064.132.094.013.008.024.018.036.025.115.08.233.156.352.232l.15.102c.182.113.364.227.549.336l.152.086c.137.078.273.154.412.23.074.041.152.078.228.117.099.051.195.104.295.152.022.012.046.023.068.033l.12.059c.154.074.311.146.468.217.033.016.065.029.099.043.18.08.361.156.545.227.044.02.088.035.133.053.17.066.342.131.514.191.021.008.043.014.064.021.189.066.381.129.574.188.046.014.092.029.139.041.195.061.389.131.592.168 12.846 2.342 16.575-7.719 16.575-7.719-3.132 4.082-8.695 5.16-13.966 3.961-.199-.045-.393-.107-.588-.166a13.834 13.834 0 01-.712-.229c-.025-.01-.052-.018-.078-.027-.168-.061-.334-.121-.5-.186-.046-.02-.093-.037-.139-.055a14.981 14.981 0 01-.54-.225l-.107-.047a31.637 31.637 0 01-.587-.276 39.31 39.31 0 01-.352-.18c-.078-.041-.157-.08-.234-.123a10.84 10.84 0 01-.422-.236 6.926 6.926 0 01-.143-.078 19.227 19.227 0 01-1.088-.696c-.043-.029-.084-.061-.126-.088a24.818 24.818 0 01-.369-.268 4.122 4.122 0 01-.163-.125c-.112-.084-.224-.17-.334-.26l-.148-.119a15.35 15.35 0 01-.461-.389 16.374 16.374 0 01-.561-.512c-.106-.102-.211-.203-.314-.309l-.123-.121c-.13-.135-.259-.27-.385-.408l-.019-.02a16.327 16.327 0 01-.39-.445l-.103-.121a12.18 12.18 0 01-.281-.348 7.075 7.075 0 01-.103-.127 20.25 20.25 0 01-.324-.432C2.962 14.733 1.91 9.229 4.25 4.708"></path>
    <path d="M10.422 4.12c-1.921 2.766-1.816 6.465-.318 9.389.251.49.533.965.85 1.418.287.412.607.904.988 1.233.139.152.283.303.432.447a13.106 13.106 0 00.553.521c.007.006.012.012.019.016l.004.004c.166.146.339.287.514.426.039.029.078.061.117.092.176.135.354.266.537.393l.016.012c.082.057.164.107.246.162.039.025.076.053.116.076.131.084.264.166.398.244l.057.033c.116.066.234.133.353.197.041.023.084.043.125.064l.247.129c.013.006.024.012.037.016.169.084.34.164.515.24l.113.047a10.32 10.32 0 00.602.236 9.384 9.384 0 00.563.192c.185.057.367.131.56.162 9.918 1.643 12.207-5.991 12.207-5.991-2.064 2.97-6.061 4.39-10.325 3.282a15.141 15.141 0 01-.563-.162l-.168-.055a8.72 8.72 0 01-.394-.137l-.177-.064a11.058 11.058 0 01-.424-.172l-.113-.047a11.134 11.134 0 01-.518-.242c-.088-.041-.174-.086-.26-.131l-.149-.078c-.11-.059-.22-.121-.328-.183-.026-.016-.053-.029-.079-.044-.134-.078-.266-.16-.396-.242-.041-.027-.08-.055-.121-.08-.086-.057-.172-.113-.257-.172a13.86 13.86 0 01-.536-.391l-.121-.096c-1.867-1.475-3.347-3.488-4.051-5.773-.736-2.369-.578-5.027.699-7.186"></path>
    <path d="M17.355 1.718c-1.132 1.666-1.243 3.736-.457 5.576.828 1.955 2.526 3.486 4.508 4.213.082.031.164.059.246.086l.109.035c.116.035.232.078.354.102 5.476 1.059 6.96-2.811 7.356-3.381-1.303 1.875-3.487 2.324-6.171 1.672a6.747 6.747 0 01-.648-.199 7.967 7.967 0 01-2.123-1.144c-2.4-1.822-3.893-5.297-2.326-8.127"></path>
  </symbol>
   <symbol xmlns="http://www.w3.org/2000/svg" viewBox="0 0 1000 1000" id="sass">
    <path d="M989.6 639.9c-3.2-26-17.7-46.2-39.8-62 5.5 3.9 10.1 7.2-.1-.1-13.8-9.8-6.5-4.6-.1-.1-54.6-38.9-125.7-30.2-185.2-8.6-23.8-38.8-24.9-68.5-11.1-110.9 1.8-5.4.6-8.3-5-10.7-13.6-5.8-33.1-2.7-46.7.9-4.7 1.2-8.1 3.6-9.2 8.4-9.9 46.4-40.2 88.9-66.7 128-18.6-35.7-17.2-63.3-4.6-100.5 1.5-4.5.8-6.9-3.7-9.3-13.9-7.2-35.2-3.7-49.4.5-16.3 4.8-40.8 85.4-48.6 101.3-16.3 33.4-30.8 85.5-58.5 112-23.5-30.3 43.1-98.6 20.8-126-7.5-9.3-21.2-9-29.8-1.2 2.1-14.6 3.2-24.1-.6-36.5-4-13-14.1-20.5-28.9-20.1-34.4 1-64.8 26.4-85.4 50.5-19.7 23.2-71.5 37.6-99.4 51.5C189.7 565.3 86 521 83.3 449.9c-2.9-80.1 92.5-134.5 156.2-167 82.8-42.3 210.5-95 304.6-48.7 25 12.3 35 38.6 28.2 63.8C554.4 363.8 482 407.7 419 427.8c-31 9.9-65 17.3-97.8 15.4-43.9-2.6-78.2-29.1-82.8-30.8-3.9-.7-3.6 4.3-2.6 7 45.3 119.6 276.2 32 336.5-29.3 29.1-29.5 46.7-58.1 54.3-103.2 8.8-52.8-29.9-85.8-59.3-99.4-149.1-69-355.3 21.4-468.1 113.6C50.2 341-11 404.6 17.1 471.3 47.6 543.6 141 580.7 201.8 625 152.6 649.5 91 674.7 59.2 720.6c-18.2 26.3-24.7 54.3-11.1 84.2 24.1 52.8 111.6 29.9 148.5 6.6 33.8-21.3 56.6-49.9 66.4-86.6 8.5-31.8 6.8-64.8-7.4-94.8l54.7-27.7c-14.7 44.2-21.2 99.5 9.3 139.4 12.3 16 44.1 16.6 57.1.6 16.9-20.9 28.1-47.2 39.2-71.2-1.3 17.9-3.6 38.3 2.6 53.9 7.1 17.9 23.2 21.6 39.8 10.2 50.8-34.8 83.1-131.4 108.1-187.7 6.8 24.6 14.3 47 26.7 69.6 3.1 5.6 2.7 9.1-1.5 13.8-18.5 20.4-62.8 54.5-67.1 82.1-1 6.5 3.3 12.6 10.9 14.1 29.8 5.9 62.9-4.8 87.1-21.2 25.2-17.1 33.4-40.4 27.3-68-8.8-39.8 21-84.2 49.4-116.8 5.2 24.7 13 48.5 27.1 70.1-25 22-62.4 53.1-57 89.8 1.9 13.1 13.7 21.6 27.8 18.6 30.2-6.4 56.3-19.4 75.4-42.4 17.3-20.8 11.1-43.5 3.6-66.3 45.7-13 91.9-15.7 137.5-.1 22 7.5 39.7 20.1 50.2 39.8 12.9 24.2 5.6 46.5-19.2 62.4-6.3 4-10.6 7.3-8.5 9.1 2.1 1.7 9.4 4 25.4-6 16-10.1 25.9-23.7 28.4-41.6.2-4.7.2-9.6-.3-14.6zm-763.4 48.4c-2.6 31.9-18.4 57.8-44.4 78.7-14.6 11.8-32.7 21.4-50.8 23.1-18 1.8-32.1-2.8-33.3-21.5C94.3 716 176 664.4 221.4 648.9c4 13.2 5.9 26.2 4.8 39.4zm197.3-138.7c-7.5 42.7-28.4 119.3-61.9 149.9-4.5 4.1-8.8 3.9-11.1-1.5-19.8-46.1 7-141 63.3-155.7 6.7-1.6 10.8 1.2 9.7 7.3zm134.6 156.5c16.1-17.2 32.2-34.3 48.4-51.5 2 19.2-33.7 57.3-48.4 51.5zm154.5-33.9c-4.5 2.4-14.6 4.8-15 1.6-2.8-23.1 22.6-47.6 38.4-59.1 8.6 21.8-1.5 45.7-23.4 57.5z"></path>
  </symbol>
   <symbol xmlns="http://www.w3.org/2000/svg" viewBox="0 0 50 50" id="javascript">
    <path d="M43.336 4H6.668A2.669 2.669 0 004 6.668v36.664A2.669 2.669 0 006.668 46h36.664A2.668 2.668 0 0046 43.336V6.668A2.668 2.668 0 0043.336 4zM27 36.184C27 40.18 24.656 42 21.234 42c-3.093 0-5.324-2.074-6.234-4l3.145-1.902C18.75 37.172 19.672 38 21 38c1.27 0 2-.496 2-2.426V23h4zM35.676 42c-3.543 0-5.555-1.785-6.676-4l3-2c.816 1.336 1.707 2.613 3.59 2.613 1.582 0 2.41-.789 2.41-1.883 0-1.304-.86-1.77-2.598-2.53l-.953-.41c-2.754-1.173-4.586-2.642-4.586-5.75 0-2.86 2.184-5.04 5.59-5.04 2.426 0 4.168.844 5.426 3.055l-2.969 1.91c-.656-1.176-1.36-1.637-2.457-1.637-1.117 0-1.824.711-1.824 1.637 0 1.144.707 1.605 2.344 2.316l.953.41C40.172 32.078 42 33.496 42 36.684 42 40.117 39.3 42 35.676 42z"></path>
  </symbol>
  <symbol xmlns="http://www.w3.org/2000/svg" viewBox="0 0 32 32" id="gulp">
    <path d="M22.154 1a.14.14 0 00-.093.033l-3.715 4.412-.758 2.606a48.434 48.434 0 00-1.592-.024c-3.86 0-6.996.41-6.996.916 0 1.21 13.99 1.21 13.99 0 0-.375-1.675-.691-4.09-.841l.6-2.145 3.475-4.18.005-.006c.078-.08-.074-.324-.322-.537-.186-.16-.381-.239-.504-.234zm-4.851 8.076l-.014.041c-.006.005-.006.012-.006.018 0 .075.303.136.672.136.37 0 .674-.061.674-.136l.012-.047c.097.035.15.075.15.121 0 .121-.375.22-.842.215-.454 0-.83-.092-.83-.213 0-.052.075-.1.184-.135zm5.61.344c-1.852.987-11.963.994-13.821.014l.822 7.232c.357-1.153 1.26-2.71 2.422-3.182.38-.156.768-.155 1.13.053.316.173.582.536.612.68.073.375-.12.523-.271.523-.182 0-.321-.264-.412-.42-.248-.42-.624-.439-1.024-.162-.418.288-.781.773-1.035 1.194a6.631 6.631 0 00-.727 1.625c-.09.323-.174.84-.035 1.146.061.127.151.207.297.207.303 0 .743-.38.955-.582.272-.259.623-.663.756-.922l.316-.892c.157-.392.598-.323.598 0 0 .588-.222.784-.603 2-.351 1.124-.461 1.488-.461 1.488-.042.16-.206.432-.381.432-.073 0-.126-.025-.156-.07-.061-.082-.055-.304-.05-.362.013-.184.381-1.28.442-1.453a7.36 7.36 0 01-.387.38c-.327.295-.852.68-1.3.68a.762.762 0 01-.465-.138l.459 4.588c.12.288 2.373.986 5.338.986 2.97 0 5.22-.703 5.336-.986l.66-5.452c-.345.3-.744.67-1.186.854-.327.133-1.053.218-1.053-.33 0-.3.552-.852.872-1.238.085-.098.283-.34.283-.467 0-.167-.362-.129-.707.142a3.373 3.373 0 00-.528.56c-.26.347-.398.645-.513.893-.375.818-.248.496-.551 1.268-.303.767-.254.68-.315.807a.565.565 0 01-.242.26.38.38 0 01-.369-.018c-.054-.035-.08-.11-.08-.213 0-.052.008-.104.02-.156.09-.352.472-1.043.908-1.977.097-.213.06-.15.047-.133-.375.346-.66.514-.871.606-.351.15-.787.15-.877-.237-.006-.023-.006-.047-.012-.07-.714.53-1.47.674-1.21-.467-.277.473-.763.86-1.357.86-.247 0-.429-.08-.519-.293-.139-.317.078-.86.277-1.373.103-.26.244-.57.432-.934.097-.196.253-.312.459-.26a.54.54 0 01.098.041c.157.104.096.258.017.414-.23.432-.43.75-.562 1.2-.054.19-.122.52.09.52a.728.728 0 00.417-.14c.278-.196.502-.489.672-.777a3.85 3.85 0 00.34-.709c.03-.098.068-.19.11-.277.067-.144.156-.293.314-.293.079 0 .144.029.193.086.103.127.08.257.026.396-.121.323-.284.612-.418.963-.08.202-.164.461-.164.674 0 .196.224.15.412.068.145-.063.29-.16.412-.257.073-.282.054-.22 1.598-3.932.079-.19.224-.272.369-.272a.34.34 0 01.193.065c.103.075.105.234.063.355-.042.11-.038.076-.274.606-.315.697-.52 1.2-.799 1.84-.115.265-.465 1.089-.525 1.285-.036.127-.08.334.06.334.328 0 1.169-.756 1.399-.98.012-.018.03-.024.055-.036.036-.11.071-.212.101-.316.085-.22.164-.475.322-.653.048-.058.103-.091.163-.091.169 0 .253.068.253.23 0 .063-.04.295-.066.358.085-.086.175-.172.272-.258.908-.801 1.554-.393 1.554.011 0 .426-.538 1.02-.834 1.348-.097.11-.296.311-.302.37 0 .074.053.105.132.105.121 0 .388-.203.485-.272.303-.225.713-.57 1.004-.812l.896-7.885zM10.93 24.03l.902 1.465.352 4.576c0 .513 1.712.928 3.818.928s3.818-.415 3.818-.928l.28-4.623.851-1.418c-2.397.963-7.527.997-10.021 0z"></path>
  </symbol>
</svg>