<svg width="18" height="17" viewBox="0 0 18 17" fill="none" xmlns="http://www.w3.org/2000/svg">
<path d="M12.1999 5.80011C13.473 5.80011 14.6939 6.30582 15.594 7.206C16.4942 8.10618 16.9999 9.32708 16.9999 10.6001V16.2001H13.7999V10.6001C13.7999 10.1758 13.6313 9.7688 13.3313 9.46874C13.0312 9.16869 12.6243 9.00011 12.1999 9.00011C11.7756 9.00011 11.3686 9.16869 11.0685 9.46874C10.7685 9.7688 10.5999 10.1758 10.5999 10.6001V16.2001H7.3999V10.6001C7.3999 9.32708 7.90562 8.10618 8.80579 7.206C9.70597 6.30582 10.9269 5.80011 12.1999 5.80011V5.80011Z" stroke="#232323" stroke-width="1.4" stroke-linecap="round" stroke-linejoin="round"/>
<path d="M4.2 6.59998H1V16.2H4.2V6.59998Z" stroke="#232323" stroke-width="1.4" stroke-linecap="round" stroke-linejoin="round"/>
<path d="M2.6 4.2C3.48366 4.2 4.2 3.48366 4.2 2.6C4.2 1.71635 3.48366 1 2.6 1C1.71635 1 1 1.71635 1 2.6C1 3.48366 1.71635 4.2 2.6 4.2Z" stroke="#232323" stroke-width="1.4" stroke-linecap="round" stroke-linejoin="round"/>
</svg>
